<svg width="54" height="53" viewBox="0 0 54 53" fill="none" xmlns="http://www.w3.org/2000/svg">
<path fill-rule="evenodd" clip-rule="evenodd" d="M26.8086 8.95311L27.5885 24.9695L40.016 18.5893C39.9877 18.4714 39.98 18.3478 39.995 18.2243L42.0649 1.16932C42.1676 0.322622 41.2588 -0.27441 40.5532 0.176202L26.8086 8.95311Z" fill="#F6C243"/>
<path fill-rule="evenodd" clip-rule="evenodd" d="M40.0165 18.5896C40.066 18.7961 40.1785 18.9854 40.3424 19.1272L53.156 30.2148C53.7916 30.7648 53.5306 31.8155 52.7186 31.976L36.5049 35.181L27.5889 24.9698L40.0165 18.5896Z" fill="#EF8332"/>
<path fill-rule="evenodd" clip-rule="evenodd" d="M37.3678 35.0105L36.2444 35.2325C35.9189 35.2969 35.6484 35.5242 35.5243 35.8378L29.2108 51.7849C28.8994 52.5714 27.8306 52.627 27.4277 51.8775L20.1797 38.3944L27.5887 24.9695L37.3678 35.0105Z" fill="#AC288E"/>
<path fill-rule="evenodd" clip-rule="evenodd" d="M20.2067 38.4454L19.3412 36.8354C19.1777 36.5313 18.8744 36.332 18.537 36.3071L1.84701 35.0721C1.01548 35.0106 0.616689 33.9909 1.18172 33.3709L8.83946 24.9695H27.5892L20.2067 38.4454Z" fill="#2460AF"/>
<path fill-rule="evenodd" clip-rule="evenodd" d="M8.83962 24.9697H28.1489V8.09746L26.3397 9.25275C26.0562 9.43378 25.7008 9.4545 25.3958 9.30778L10.2216 2.00828C9.46889 1.64621 8.6491 2.32983 8.84746 3.15416L12.8715 19.8774C12.951 20.2078 12.8633 20.5552 12.638 20.8024L8.83962 24.9697Z" fill="#87BE3C"/>
</svg>
