<svg width="146" height="106" fill="none" xmlns="http://www.w3.org/2000/svg"><path d="M19.12 68.478c0-1.233-.43-2.282-1.278-3.136-.848-.855-1.89-1.287-3.113-1.287-1.224 0-2.265.432-3.146 1.287-.87.854-1.31 1.903-1.31 3.136s.44 2.293 1.31 3.17c.87.876 1.922 1.32 3.146 1.32s2.254-.444 3.113-1.32c.848-.877 1.278-1.937 1.278-3.17zm5.292-.66c0 2.9-1.041 5.365-3.135 7.399-2.093 2.033-4.573 3.05-7.46 3.05-2.889 0-5.368-1.017-7.462-3.05-2.093-2.034-3.134-4.489-3.134-7.398 0-2.9 1.03-5.355 3.102-7.355 2.061-2.002 4.563-3.008 7.493-3.008 2.931 0 5.432 1.006 7.494 3.008 2.06 2.011 3.102 4.456 3.102 7.355zm15.244-8.804c.215 3.19.312 7.095.312 11.692 0 4.532-.108 8.123-.312 10.784l-.311 4.002c-.086 1.212-.472 2.39-1.17 3.548-.698 1.157-1.76 1.752-3.2 1.785-1.31.043-2.426-.541-3.349-1.752-.762-1.006-1.18-2.207-1.267-3.57-.461-5.332-.697-10.308-.697-14.905 0-4.489.128-8.307.375-11.454l.322-4.727c.258-3.19 1.729-4.824 4.423-4.91 1.31-.044 2.373.389 3.189 1.297.826.909 1.277 2.066 1.363 3.483l.322 4.727zm36.114 2.942c1.148.097 1.943.465 2.362 1.103.429.638.665 1.363.719 2.163.15 2.131-.805 3.3-2.856 3.494a69.632 69.632 0 01-8.642.379c-3.156-.054-5.786-.184-7.89-.379-1.203-.097-2.201-.616-3.006-1.557-.805-.942-1.203-2.012-1.203-3.235v-4.64c.044-1.828 1.332-3.32 2.856-3.57 1.396-.237 4.627-.562 6.838-.919.988-.162 1.557-.605 1.654-1.514.096-.865-.526-1.45-1.879-1.752-.902-.206-2.233-.379-3.983-.53l-2.78-.227c-1.557-.097-2.255-.865-2.104-2.282.204-.812.697-1.32 1.503-1.526 1.202-.356 4.38-.508 9.543-.454 3.758.098 5.819.184 6.72.281 1.9.206 3.092.812 3.565 1.634.644 1.125.783 3.428.837 4.543.043 1.87-.107 3.212-.45 4.023-.505 1.114-1.6 1.774-3.307 1.98l-4.51.53c-1.309.151-2.06.551-2.103 1.211-.054.854.987 1.038 2.254 1.06 1.439.065 4.96.184 5.862.184zM72.742 96.05v-1.915c0-2.066-.977-3.094-2.93-3.094h-4.434c-2.04 0-3.06 1.028-3.06 3.094v1.914c0 2.196 1.02 3.288 3.06 3.288h4.294c2.05 0 3.07-1.092 3.07-3.288zm15.48-20.779c0 1.893-1.674 2.985-5.034 3.299a101.1 101.1 0 01-8.61.346c-3.779 0-3.832 2.293-3.843 4.143 0 1.179.612 2.715 4.004 3.223 1.986.303 3.124 1.969 3.124 4.813v8.307c0 1.277-.43 2.315-1.277 3.137-.849.811-1.911 1.222-3.167 1.222H60.257c-1.224 0-2.254-.422-3.102-1.254-.848-.844-1.278-1.872-1.278-3.105v-8.696c-.043-1.947.837-3.818 2.684-4.154 2.512-.443 4.595-1.352 4.563-3.493-.033-2.369-.183-3.732-3.06-4.089-.612-.086-3.693-.195-6.613-.324l-3.993-.13c-1.096-.043-2.158-.325-3.21-.855-1.267-.66-1.922-1.47-1.965-2.433-.043-.963.612-1.752 1.965-2.369a8.647 8.647 0 013.21-.725l11.84-.465c4.617-.043 8.084-.043 10.403 0a84.11 84.11 0 017.461.195l4.026.26c3.36.237 5.035 1.297 5.035 3.147zm27.333 20.172h-4.305V72.21h4.305v23.233zm-10.414 0V81.436h-4.068v-2.92h4.068V72.21h4.305v23.223h-4.305v.01zm-5.153 5.268h16.275v2.92h-17.66c-.901 0-1.663-.302-2.275-.908-.612-.606-.913-1.439-.913-2.51v-6.868h4.573v7.366zm-.644-27.668v4.856c0 2.856.548 5.257 1.643 7.193s2.48 3.159 4.154 3.667l-2.028 1.969c-1.246-.206-2.491-.877-3.747-2.012-1.256-1.136-2.008-2.37-2.254-3.678-.226 1.32-.977 2.542-2.233 3.678-1.267 1.135-2.534 1.806-3.8 2.012l-2.105-1.97c1.696-.507 3.103-1.73 4.208-3.666 1.106-1.936 1.664-4.337 1.664-7.193v-4.856h4.498zm34.987 7.863h4.713V72.21h4.573v31.421h-4.573V83.827h-4.713v-2.92zm.923-7.669v2.889h-9.361v5.126h7.225v2.92h-7.225v5.463h11.014v2.888h-12.474c-.945 0-1.707-.303-2.276-.909-.569-.605-.848-1.416-.848-2.433V73.237h13.945z" fill="#0056A4"/><path d="M102.114 37.251c1.138-.94 2.459-1.644 3.704-1.882l9.608-1.806c2.598-.487 3.049-2.293.988-4.013l-7.59-6.37c-.784-.66-1.471-1.59-1.997-2.64-5.142 2.499-9.855 3.926-13.999 4.694 2.373 4.392 6.076 8.718 9.286 12.017z" fill="#F07F13"/><path d="M76.07 24.986c-.107.13-.204.26-.322.378l-6.752 7.323c-1.825 1.98-1.17 3.71 1.47 3.85l9.748.53c1.75.098 3.725 1.039 5.228 2.37 3.736-4.89 6.033-9.714 7.375-14.192-8.298 1.536-14.288.4-16.747-.26z" fill="#0056A4"/><path d="M92.828 25.245c4.144-.768 8.857-2.206 13.999-4.694-.859-1.709-1.31-3.742-1.084-5.419l1.32-10.048c.365-2.715-1.159-3.71-3.371-2.218l-8.19 5.528c-.387.26-.827.475-1.3.66a39.308 39.308 0 01-1.374 16.191z" fill="#FDC400"/><path d="M94.202 9.053a8.989 8.989 0 01-1.835.498c-1.804.292-3.758.108-5.207-.616L78.368 4.52c-2.373-1.19-3.758 0-3.07 2.64l2.533 9.788c.644 2.488-.14 5.982-1.76 8.026 2.458.66 8.448 1.796 16.746.26a39.094 39.094 0 001.385-16.181z" fill="#90BA1E"/><path d="M92.828 25.245c-1.342 4.489-3.65 9.302-7.375 14.191.773.682 1.417 1.46 1.836 2.282l4.616 8.924c1.245 2.423 3.038 2.293 3.983-.26l3.5-9.464c.482-1.33 1.502-2.628 2.726-3.656-3.21-3.31-6.924-7.636-9.286-12.017z" fill="#AF1280"/></svg>